# xmcd CD database file
#
# Track frame offsets:
#	150
#	18812
#	31751
#	49553
#	67004
#	95939
#	107908
#
# Disc length: 1736 seconds
#
# Revision: 0
# Processed by: cddbd v1.5.2PL0 Copyright (c) Steve Scherf et al.
# Submitted via: CDex 1.70beta3
#
DISCID=5506c607
DTITLE=Red Mitchell - Happy Minors
DYEAR=1955
DGENRE=Jazz
TTITLE0=Happy Minor
TTITLE1=Bluesology
TTITLE2=Once In A While
TTITLE3=Long Ago And Far Away
TTITLE4=Gone With The Wind
TTITLE5=Kelly Green
TTITLE6=Scrapple From The Apple
EXTD=YEAR: 1955
EXTT0=
EXTT1=
EXTT2=
EXTT3=
EXTT4=
EXTT5=
EXTT6=
PLAYORDER=
